<svg width="56" height="56" viewBox="0 0 56 56" fill="none" xmlns="http://www.w3.org/2000/svg">
<path d="M32.0656 15.5232C32.0656 17.192 32.06 18.8664 32.0656 20.5352C32.0712 21.5712 32.088 22.6072 32.116 23.6432C32.1384 24.3432 32.1832 25.0432 32.2224 25.7376C32.2448 26.1016 32.2672 26.46 32.312 26.824C32.3512 27.1656 32.4184 27.5072 32.4744 27.8488C32.5024 28.0336 32.536 28.224 32.5752 28.4088C32.5976 28.4984 32.6256 28.5936 32.676 28.672C32.6984 28.7056 32.7768 28.7168 32.8272 28.728C32.8608 28.7336 32.9 28.7056 32.9336 28.7056C33.4432 28.6888 33.9584 28.6552 34.468 28.6608C34.8656 28.6664 35.2632 28.7056 35.6552 28.7504C36.0528 28.7952 36.4504 28.8512 36.848 28.924C37.2008 28.9856 37.5536 29.0752 37.9064 29.1536C38.1808 29.2152 38.4608 29.2712 38.7352 29.3496C39.0656 29.4448 39.3848 29.5624 39.7096 29.6744C39.9 29.7416 40.096 29.8088 40.2808 29.8872C40.516 29.988 40.7456 30.0944 40.9752 30.2064C41.1208 30.2736 41.2608 30.352 41.3952 30.436C41.8432 30.7048 42.2688 31.0016 42.5096 31.4832C42.644 31.752 42.672 32.0544 42.6328 32.3512C42.5488 32.9896 42.2296 33.5104 41.7928 33.964C41.4568 34.3112 41.0816 34.6024 40.6616 34.8376C40.3424 35.0168 40.0288 35.2016 39.704 35.3528C39.368 35.5096 39.0152 35.6272 38.668 35.756C38.4552 35.8344 38.2368 35.9128 38.0184 35.9744C37.744 36.0528 37.4696 36.1256 37.1952 36.1984C36.9824 36.2544 36.764 36.316 36.5512 36.3664C36.3832 36.4056 36.2096 36.4392 36.036 36.4728C35.7336 36.5288 35.4368 36.5904 35.1344 36.6408C34.8096 36.6912 34.4792 36.7248 34.1544 36.764C33.7736 36.8088 33.3928 36.8592 33.012 36.8984C32.844 36.9152 32.676 36.9264 32.5136 36.9432C32.088 36.9712 31.6624 37.0048 31.2368 37.0328C31.1472 37.0384 31.0632 37.0328 30.9736 37.0384C30.9008 37.044 30.8616 37.0104 30.856 36.9376C30.8504 36.8984 30.8448 36.8592 30.8448 36.82C30.828 36.5064 30.8056 36.1928 30.7888 35.8792C30.772 35.6104 30.7664 35.3416 30.744 35.0672C30.6936 34.3728 30.6376 33.684 30.5816 32.9896C30.548 32.564 30.52 32.144 30.4864 31.7184C30.464 31.4216 30.436 31.1192 30.408 30.8224C30.3688 30.3856 30.3296 29.9488 30.2848 29.512C30.2736 29.3832 30.2512 29.26 30.2344 29.1312C30.2176 28.9912 30.212 28.8568 30.1952 28.7168C30.1784 28.5656 30.1504 28.4144 30.128 28.2632C30.128 28.252 30.1224 28.2408 30.1224 28.2296C30.0888 27.916 30.0608 27.6024 30.0216 27.2944C29.9768 26.9528 29.9264 26.6112 29.8816 26.2752C29.8312 25.9224 29.792 25.5696 29.736 25.2224C29.6856 24.9088 29.6296 24.5896 29.5736 24.276C29.5344 24.052 29.5064 23.828 29.4728 23.604C29.4168 23.268 29.3608 22.932 29.3048 22.596C29.2656 22.3552 29.2264 22.1144 29.1872 21.8736C29.1368 21.5936 29.0808 21.308 29.0248 21.028C28.9912 20.8488 28.9576 20.6696 28.9296 20.4904C28.8736 20.1936 28.8176 19.8968 28.7672 19.5944C28.7224 19.3592 28.6888 19.124 28.6384 18.8944C28.588 18.6424 28.5264 18.3904 28.476 18.1384C28.4368 17.9536 28.4088 17.7744 28.3752 17.5896C28.3248 17.3432 28.2744 17.0968 28.224 16.8504C28.1792 16.6152 28.1344 16.3856 28.084 16.1504C28.0672 16.0552 28.112 16.0104 28.196 15.9768C28.6832 15.792 29.1704 15.6072 29.6632 15.428C30.1896 15.232 30.716 15.0472 31.248 14.8512C31.4944 14.7616 31.7408 14.6664 31.9872 14.5712C32.088 14.532 32.116 14.5488 32.1104 14.6664C32.1104 14.896 32.0992 15.1256 32.0992 15.3608C32.0992 15.4168 32.0992 15.4728 32.0992 15.5232C32.088 15.5232 32.0768 15.5232 32.0656 15.5232ZM34.7088 31.0688C34.5016 31.0576 34.4792 31.0856 34.4848 31.2312C34.4848 31.248 34.4904 31.2704 34.4904 31.2872C34.5408 31.6568 34.5912 32.0208 34.6416 32.3904C34.664 32.5416 34.6864 32.6928 34.7088 32.844C34.7592 33.1856 34.8096 33.5328 34.8544 33.8744C34.8936 34.16 34.9272 34.4456 34.9664 34.7312C34.9832 34.8376 35.0616 34.8656 35.1456 34.804C35.3416 34.664 35.532 34.5184 35.728 34.3784C36.0472 34.1488 36.3608 33.9136 36.68 33.684C37.0048 33.4432 37.3296 33.208 37.6544 32.9672C37.8336 32.8328 38.0184 32.6984 38.1976 32.5584C38.2592 32.5136 38.2592 32.4688 38.1864 32.4408C37.9232 32.3232 37.6656 32.2 37.4024 32.0824C37.1448 31.9704 36.876 31.864 36.6184 31.7576C36.4448 31.6848 36.2712 31.6064 36.092 31.5392C35.7784 31.4216 35.4648 31.3096 35.1456 31.2032C34.9944 31.1416 34.8208 31.1024 34.7088 31.0688Z" fill="#E1E1E1"/>
<path d="M6.2832 18.452C6.2832 19.1072 6.272 19.7624 6.2832 20.4176C6.3112 21.756 6.3392 23.1 6.384 24.4384C6.4008 25.0208 6.4456 25.6088 6.4848 26.1912C6.5072 26.4992 6.5408 26.8016 6.5744 27.104C6.5968 27.3168 6.6192 27.5296 6.664 27.7424C6.72 28.0224 6.7872 28.2968 6.86 28.5712C6.8992 28.7168 6.9496 28.7392 7.1008 28.7056C7.112 28.7056 7.1232 28.7 7.1344 28.7C7.6944 28.6832 8.2544 28.6608 8.8088 28.6552C9.0776 28.6552 9.352 28.672 9.6152 28.7056C9.9624 28.7448 10.304 28.8064 10.6512 28.8624C11.0432 28.924 11.4296 28.9912 11.816 29.064C12.04 29.1088 12.264 29.1704 12.4824 29.2264C12.7288 29.288 12.9752 29.3552 13.2216 29.428C13.44 29.4896 13.664 29.5624 13.8768 29.6352C14.1064 29.7136 14.336 29.7976 14.56 29.8928C14.756 29.9768 14.952 30.0776 15.1424 30.1672C15.5064 30.3408 15.8424 30.5536 16.1616 30.8C16.38 30.9736 16.5816 31.1696 16.7104 31.416C16.856 31.696 16.9008 32.0096 16.8616 32.3232C16.8112 32.704 16.6824 33.0568 16.4752 33.3816C16.2568 33.7176 15.988 34.0088 15.6856 34.2664C15.2152 34.6696 14.6832 34.9888 14.1288 35.252C13.7368 35.4368 13.3224 35.588 12.9136 35.7448C12.6784 35.8344 12.4432 35.9128 12.2024 35.9856C11.956 36.0584 11.7096 36.12 11.4632 36.1816C11.2224 36.2432 10.9816 36.3104 10.7408 36.3608C10.5448 36.4056 10.3488 36.428 10.1472 36.4672C9.9176 36.512 9.6936 36.5624 9.4584 36.596C9.1224 36.6464 8.7864 36.6968 8.4504 36.736C8.0472 36.7864 7.6384 36.8368 7.2296 36.8816C7.028 36.904 6.832 36.9152 6.6304 36.9264C6.1768 36.9544 5.7176 36.988 5.264 37.016C5.096 37.0272 5.096 37.016 5.0848 36.848C5.0568 36.372 5.0232 35.9016 4.9952 35.4256C4.9672 35.0168 4.9392 34.608 4.9112 34.2048C4.872 33.7008 4.8328 33.1912 4.7936 32.6872C4.7656 32.3568 4.7488 32.0208 4.7208 31.6904C4.676 31.1752 4.6256 30.6656 4.5752 30.1504C4.5528 29.904 4.5304 29.6632 4.5024 29.4168C4.4632 29.0864 4.4184 28.7616 4.3792 28.4312C4.34 28.1064 4.3176 27.776 4.2784 27.4512C4.2448 27.1488 4.1944 26.8408 4.1552 26.5384C4.1048 26.1632 4.0544 25.7936 3.9984 25.4184C3.948 25.0992 3.8864 24.78 3.836 24.4608C3.7968 24.2144 3.7688 23.968 3.7352 23.7272C3.696 23.464 3.6456 23.2008 3.6008 22.9376C3.5392 22.5568 3.472 22.1816 3.4104 21.8008C3.3656 21.5152 3.3208 21.2352 3.2704 20.9496C3.192 20.5464 3.108 20.1432 3.0296 19.7344C2.9848 19.488 2.9456 19.2416 2.9008 19.0008C2.856 18.76 2.8 18.5192 2.7496 18.2728C2.7104 18.0824 2.6768 17.8864 2.6376 17.696C2.5872 17.444 2.5368 17.1976 2.4864 16.9456C2.4304 16.6712 2.3688 16.3968 2.3184 16.1168C2.296 16.0104 2.3744 15.9768 2.4528 15.9488C2.7552 15.8368 3.052 15.7248 3.3544 15.6128C3.6344 15.5064 3.9144 15.4056 4.1944 15.3048C4.4072 15.2264 4.6256 15.1424 4.8384 15.0584C5.124 14.952 5.404 14.8512 5.6896 14.7448C5.8072 14.7 5.9192 14.6552 6.0368 14.616C6.0928 14.5936 6.1544 14.5712 6.216 14.56C6.3224 14.5376 6.3504 14.5656 6.3448 14.672C6.3336 14.9856 6.328 15.2992 6.3168 15.6184C6.3112 15.8592 6.3112 16.0944 6.3112 16.3352C6.3112 17.0352 6.3112 17.7352 6.3112 18.4352C6.2944 18.452 6.2888 18.452 6.2832 18.452ZM8.904 31.0688C8.7136 31.0632 8.6856 31.0968 8.7024 31.2368C8.7192 31.3544 8.7416 31.472 8.7584 31.5952C8.7808 31.7296 8.792 31.8696 8.8144 32.004C8.8536 32.2504 8.8928 32.4912 8.932 32.7376C8.9768 33.0456 9.016 33.3592 9.0552 33.6728C9.1056 34.0256 9.1616 34.3784 9.212 34.7368C9.2288 34.8376 9.3072 34.8712 9.3912 34.8152C9.4192 34.7984 9.4416 34.7704 9.4696 34.7536C9.8672 34.4624 10.2592 34.1712 10.6568 33.88C10.9592 33.656 11.2616 33.4264 11.5696 33.2024C11.844 33.0008 12.1184 32.8104 12.3928 32.6032C12.5048 32.5192 12.4936 32.4744 12.376 32.4184C12.3256 32.396 12.2752 32.3736 12.2248 32.3512C11.928 32.228 11.6368 32.1048 11.34 31.9816C11.004 31.836 10.668 31.6848 10.3264 31.5504C9.996 31.4216 9.6544 31.304 9.3184 31.192C9.1672 31.1248 9.0104 31.0968 8.904 31.0688Z" fill="#E1E1E1"/>
<path d="M47.3144 17.0912C47.5048 17.1136 47.7008 17.1304 47.8912 17.1528C47.992 17.164 48.0424 17.2424 48.048 17.3376C48.0872 17.8248 48.1208 18.3064 48.1544 18.7936C48.188 19.3312 48.2216 19.8688 48.2552 20.4064C48.2832 20.8208 48.3112 21.2352 48.3448 21.6496C48.3896 22.1928 48.4344 22.736 48.4736 23.2736C48.4904 23.4752 48.5016 23.6824 48.5128 23.884C48.5408 24.2704 48.58 24.6568 48.608 25.0432C48.6472 25.5192 48.6752 25.9952 48.7144 26.4656C48.7424 26.8744 48.7704 27.2832 48.804 27.692C48.832 28.112 48.86 28.5264 48.8936 28.9464C48.9384 29.484 48.9832 30.016 49.028 30.5536C49.0784 31.2144 49.1232 31.8752 49.1792 32.536C49.224 33.124 49.2744 33.712 49.3248 34.3C49.336 34.4232 49.3136 34.4512 49.1904 34.4736C48.6864 34.552 48.1824 34.5632 47.6784 34.4792C47.5664 34.4568 47.5272 34.4064 47.5216 34.3C47.4768 33.7232 47.4264 33.1464 47.376 32.5696C47.3592 32.4016 47.3424 32.2336 47.3312 32.0656C47.2976 31.668 47.2696 31.2704 47.2304 30.8784C47.1856 30.4416 47.1184 30.0104 47.0736 29.5736C47.0288 29.176 46.9952 28.7728 46.9504 28.3752C46.8944 27.86 46.8328 27.3448 46.7712 26.824C46.7432 26.5832 46.7152 26.348 46.6816 26.1072C46.6312 25.7656 46.5752 25.4296 46.5304 25.088C46.4912 24.8136 46.4632 24.5392 46.424 24.2648C46.3736 23.8952 46.312 23.5256 46.2616 23.156C46.2168 22.8424 46.1832 22.5288 46.1328 22.2152C46.088 21.924 46.0264 21.6328 45.9816 21.3416C45.9424 21.1064 45.9144 20.8656 45.8752 20.6248C45.8248 20.3056 45.7632 19.992 45.7128 19.6728C45.668 19.4152 45.6344 19.152 45.5896 18.8944C45.5392 18.6312 45.4832 18.368 45.4328 18.1048C45.388 17.8696 45.3488 17.6288 45.3096 17.3936C45.2984 17.3264 45.3208 17.2816 45.3992 17.2704C45.4496 17.2648 45.5 17.2424 45.5504 17.2424C46.0096 17.1976 46.4744 17.1584 46.9336 17.1192C47.0624 17.108 47.1912 17.1192 47.32 17.1192C47.3144 17.108 47.3144 17.1024 47.3144 17.0912Z" fill="#E1E1E1"/>
<path d="M21.5992 17.0968C21.728 17.108 21.9184 17.1248 22.1088 17.1528C22.2208 17.1696 22.2656 17.2536 22.2768 17.3544C22.2936 17.5112 22.3104 17.668 22.316 17.8248C22.3496 18.4072 22.3832 18.984 22.4168 19.5664C22.4448 20.0032 22.4784 20.44 22.512 20.8768C22.5512 21.4032 22.6016 21.924 22.6408 22.4504C22.7024 23.2176 22.7584 23.9848 22.8144 24.7464C22.8704 25.4744 22.9208 26.1968 22.9712 26.9248C22.9992 27.3448 23.0272 27.7704 23.0664 28.1904C23.1168 28.7784 23.1784 29.3608 23.2232 29.9488C23.268 30.52 23.3016 31.0856 23.3464 31.6568C23.3856 32.1944 23.436 32.7376 23.4752 33.2752C23.4976 33.572 23.5088 33.8688 23.5256 34.1656C23.5312 34.216 23.548 34.2664 23.5592 34.3168C23.5816 34.412 23.548 34.4568 23.4472 34.4736C23.016 34.5464 22.5904 34.5688 22.1536 34.5128C22.0584 34.5016 21.9632 34.496 21.8736 34.468C21.8344 34.4568 21.784 34.4064 21.784 34.3728C21.7448 34.0032 21.7168 33.628 21.6776 33.2584C21.6384 32.8384 21.5936 32.424 21.5488 32.004C21.532 31.8304 21.5208 31.6512 21.504 31.4776C21.4704 31.0688 21.4424 30.6656 21.3976 30.2568C21.3528 29.8536 21.2912 29.456 21.2408 29.0528C21.196 28.6552 21.168 28.2576 21.1176 27.8656C21.0672 27.4568 21.0056 27.048 20.9552 26.6392C20.916 26.3256 20.888 26.0064 20.8488 25.6928C20.804 25.3456 20.7424 25.004 20.692 24.6568C20.692 24.64 20.6864 24.6288 20.6864 24.612C20.6472 24.2928 20.6136 23.9736 20.5688 23.6544C20.5128 23.24 20.4512 22.8312 20.384 22.4168C20.3448 22.148 20.2944 21.8848 20.2552 21.6216C20.2104 21.3136 20.1712 21.0112 20.1152 20.7032C20.0368 20.2552 19.9528 19.8072 19.8744 19.3536C19.8296 19.0848 19.796 18.8104 19.7456 18.5416C19.7008 18.3008 19.6504 18.0656 19.6 17.8248C19.572 17.6792 19.5384 17.5392 19.5216 17.3936C19.516 17.36 19.5496 17.2984 19.5776 17.2872C19.6448 17.2592 19.7232 17.248 19.8016 17.2424C20.2496 17.1976 20.7032 17.1584 21.1512 17.1192C21.2856 17.108 21.4144 17.108 21.5992 17.0968Z" fill="#E1E1E1"/>
<path d="M53.2784 31.6288C53.2784 32.5976 53.284 33.5608 53.2784 34.5296C53.2784 34.8936 53.256 35.252 53.2504 35.616C53.2504 35.6944 53.2112 35.7336 53.1384 35.7392C53.0824 35.7448 53.0208 35.7448 52.9648 35.7448C52.5672 35.7616 52.1696 35.7784 51.772 35.8008C51.6208 35.8064 51.4752 35.8232 51.324 35.8344C51.2288 35.8456 51.1896 35.8064 51.1784 35.7056C51.1504 35.3584 51.1224 35.0168 51.0832 34.6696C51.0328 34.2272 50.9712 33.7848 50.9264 33.3424C50.876 32.872 50.848 32.396 50.8032 31.92C50.7752 31.5672 50.7416 31.2144 50.708 30.8616C50.68 30.5536 50.652 30.2512 50.624 29.9432C50.5904 29.5848 50.5568 29.232 50.5288 28.8736C50.4728 28.1512 50.4168 27.4232 50.3664 26.7008C50.3552 26.4992 50.3664 26.5048 50.5736 26.488C51.0104 26.4544 51.4472 26.3928 51.884 26.376C52.2312 26.3648 52.5784 26.3872 52.9256 26.4096C53.0992 26.4208 53.1328 26.5776 53.1496 26.7176C53.172 26.9024 53.1888 27.0872 53.2 27.2776C53.2224 27.664 53.2448 28.0504 53.2504 28.4368C53.2728 29.5008 53.284 30.5592 53.3008 31.6232C53.2896 31.6288 53.284 31.6288 53.2784 31.6288Z" fill="#E1E1E1"/>
<path d="M20.4008 34.9496C20.4064 35.2744 20.4008 35.224 20.0816 35.28C19.7064 35.3472 19.3256 35.3976 18.9504 35.448C18.788 35.4704 18.6256 35.4872 18.4632 35.504C18.3792 35.5152 18.3512 35.4592 18.34 35.392C18.2896 35.1288 18.2448 34.86 18.1944 34.5968C18.1552 34.4008 18.1104 34.2048 18.0712 34.0088C18.0208 33.768 17.976 33.5272 17.9312 33.2864C17.8808 33.04 17.836 32.7992 17.7856 32.5528C17.7352 32.3008 17.696 32.0488 17.6456 31.8024C17.6064 31.6008 17.5616 31.4048 17.5224 31.2032C17.4776 30.9736 17.4272 30.744 17.388 30.5144C17.3152 30.1168 17.2536 29.7192 17.1808 29.3272C17.1304 29.0696 17.0688 28.8176 17.024 28.56C16.9848 28.336 16.9568 28.1064 16.9176 27.8824C16.8784 27.6416 16.8336 27.4008 16.7944 27.16C16.7552 26.9304 16.716 26.7064 16.6824 26.4768C16.66 26.3424 16.6824 26.32 16.8168 26.292C17.1304 26.2304 17.444 26.18 17.752 26.1072C18.1104 26.0176 18.48 26.0008 18.844 25.9728C18.9672 25.9672 19.0904 25.9672 19.208 25.9784C19.3424 25.9896 19.4376 26.0904 19.46 26.2416C19.5272 26.6784 19.6 27.1152 19.6616 27.552C19.712 27.8936 19.7568 28.2352 19.796 28.5824C19.8464 29.0248 19.88 29.4672 19.9304 29.9096C19.9864 30.4696 20.0536 31.0296 20.1096 31.5896C20.1544 32.0432 20.1824 32.4968 20.216 32.9448C20.2496 33.3648 20.272 33.7792 20.3112 34.1992C20.3336 34.4568 20.3728 34.7032 20.4008 34.9496Z" fill="#E1E1E1"/>
<path d="M42.4648 26.516C42.4592 26.3312 42.4536 26.3256 42.6328 26.292C42.9184 26.2304 43.2096 26.1856 43.4896 26.1128C43.8368 26.0232 44.1952 26.0232 44.548 25.9728C44.7328 25.9504 44.912 25.956 45.08 26.0288C45.136 26.0512 45.192 26.124 45.2088 26.1856C45.3656 26.7904 45.4496 27.412 45.5056 28.0336C45.5392 28.42 45.5952 28.8064 45.6344 29.1928C45.6848 29.6632 45.724 30.128 45.7688 30.5984C45.8248 31.1528 45.892 31.7072 45.9424 32.256C45.9872 32.732 46.0096 33.2136 46.0488 33.6896C46.0768 34.0984 46.1104 34.5128 46.144 34.9216C46.144 34.9552 46.1608 34.9832 46.172 35.0168C46.2 35.1344 46.144 35.2128 46.0208 35.2296C45.6848 35.2744 45.3488 35.3192 45.0128 35.364C44.7664 35.3976 44.5256 35.4424 44.2792 35.4872C44.1672 35.504 44.1336 35.476 44.1112 35.3696C44.0664 35.14 44.0048 34.9048 43.96 34.6752C43.932 34.5408 43.9208 34.4008 43.8928 34.2664C43.8368 33.9696 43.7696 33.6728 43.7136 33.376C43.6296 32.9504 43.5568 32.5192 43.4728 32.0936C43.4224 31.836 43.3608 31.5728 43.3104 31.3152C43.2712 31.1304 43.2432 30.9512 43.2152 30.7664C43.1704 30.5312 43.1312 30.3016 43.0864 30.0664C43.0304 29.7696 42.98 29.4784 42.924 29.1816C42.8736 28.9128 42.812 28.6384 42.7616 28.3696C42.728 28.2072 42.7 28.0392 42.672 27.8768C42.6048 27.468 42.5376 27.0536 42.476 26.6448C42.4704 26.6112 42.4704 26.5664 42.4648 26.516Z" fill="#E1E1E1"/>
<path d="M27.4904 31.724C27.4904 32.76 27.4904 33.7904 27.4904 34.8264C27.4904 35.0952 27.468 35.3584 27.4624 35.6272C27.4624 35.6944 27.4288 35.728 27.3672 35.7392C27.3392 35.7448 27.3168 35.7448 27.2888 35.7504C26.8856 35.7672 26.4768 35.7896 26.0736 35.8064C25.9056 35.8176 25.7376 35.8344 25.5696 35.84C25.424 35.8456 25.4016 35.8232 25.3904 35.6832C25.3736 35.4816 25.3624 35.2744 25.34 35.0672C25.312 34.7424 25.2784 34.412 25.2448 34.0872C25.2056 33.6896 25.1552 33.292 25.116 32.8888C25.0488 32.2168 24.9816 31.5504 24.92 30.8784C24.8696 30.352 24.8304 29.82 24.7856 29.2936C24.752 28.924 24.724 28.5544 24.696 28.1792C24.6624 27.7088 24.6288 27.2384 24.5952 26.7736C24.5952 26.74 24.5952 26.7064 24.5952 26.6728C24.6064 26.5216 24.6288 26.5048 24.7856 26.4936C25.2392 26.4544 25.6872 26.404 26.1408 26.376C26.3928 26.3592 26.6448 26.3816 26.8968 26.3928C27.0088 26.3984 27.1208 26.4152 27.2272 26.4544C27.2776 26.4712 27.3392 26.5384 27.3504 26.5944C27.3952 26.8128 27.44 27.0312 27.4456 27.2552C27.4792 28.7448 27.5016 30.2344 27.5296 31.724C27.5128 31.724 27.5016 31.724 27.4904 31.724Z" fill="#E1E1E1"/>
<path d="M52.9816 23.4752C52.9816 24.0128 52.9816 24.5504 52.9816 25.088C52.9816 25.2 52.948 25.2336 52.836 25.2168C52.5056 25.1832 52.1752 25.144 51.8448 25.1104C51.7552 25.0992 51.7496 25.0432 51.7496 24.976C51.7384 24.6232 51.7328 24.2704 51.7216 23.9232C51.7048 23.2008 51.6936 22.4728 51.6768 21.7504C51.6712 21.588 51.6824 21.5768 51.8392 21.588C52.1584 21.6048 52.4832 21.6216 52.8024 21.644C52.976 21.6552 53.0096 21.6832 53.0096 21.8568C53.0152 22.3944 53.0096 22.932 53.0096 23.4696C53.004 23.4752 52.9928 23.4752 52.9816 23.4752Z" fill="#E1E1E1"/>
<path d="M25.9056 22.9544C25.9056 22.5456 25.9056 22.1424 25.9056 21.7336C25.9056 21.5936 25.9168 21.5768 26.0568 21.588C26.376 21.6048 26.6952 21.6104 27.0088 21.6496C27.216 21.672 27.2552 21.6832 27.2552 21.9016C27.2384 22.9096 27.2328 23.9176 27.2048 24.92C27.1936 25.284 27.2272 25.228 26.9024 25.2C26.628 25.1776 26.348 25.144 26.0736 25.1104C26.0008 25.1048 25.9896 25.0544 25.984 24.9928C25.9728 24.6736 25.9504 24.3488 25.9448 24.0296C25.9392 23.6712 25.9448 23.3128 25.9448 22.9544C25.928 22.9544 25.9168 22.9544 25.9056 22.9544Z" fill="#E1E1E1"/>
<path d="M18.1944 21.2576C18.3568 21.2576 18.5248 21.2576 18.6872 21.2576C18.8272 21.2576 18.8552 21.28 18.872 21.42C18.9056 21.7336 18.9336 22.0472 18.9616 22.3608C19.012 22.932 19.0568 23.4976 19.1016 24.0688C19.1128 24.22 19.1128 24.3768 19.124 24.528C19.124 24.5616 19.1296 24.6008 19.1408 24.6344C19.1744 24.7744 19.152 24.8024 19.0064 24.8024C18.6816 24.7968 18.3568 24.7912 18.032 24.7912C17.9592 24.7912 17.9312 24.7576 17.9256 24.696C17.9032 24.5504 17.8752 24.3992 17.8584 24.2536C17.8136 23.8784 17.7744 23.4976 17.7352 23.1168C17.7072 22.848 17.6792 22.5792 17.6512 22.3104C17.6232 22.0248 17.5896 21.7392 17.5616 21.4536C17.5616 21.4368 17.556 21.4144 17.556 21.3976C17.5336 21.2968 17.5504 21.2688 17.6624 21.2632C17.8304 21.2632 18.0096 21.2632 18.1944 21.2576C18.1944 21.2632 18.1944 21.2632 18.1944 21.2576Z" fill="#E1E1E1"/>
<path d="M43.96 21.2576C44.128 21.2576 44.296 21.2576 44.464 21.2576C44.6096 21.2576 44.6432 21.2968 44.6544 21.4368C44.7048 22.0808 44.7608 22.7192 44.8112 23.3632C44.8448 23.7944 44.884 24.2256 44.9176 24.6568C44.9288 24.78 44.9008 24.808 44.7776 24.8024C44.5704 24.7912 44.3688 24.7688 44.1616 24.7632C44.0664 24.7576 43.9656 24.7744 43.8704 24.7912C43.736 24.8136 43.6912 24.7856 43.6744 24.6512C43.6296 24.3264 43.5904 23.996 43.5512 23.6712C43.5176 23.3968 43.5064 23.1224 43.4616 22.8536C43.4112 22.5736 43.3888 22.2992 43.372 22.0192C43.3608 21.812 43.3216 21.6104 43.2936 21.4032C43.2824 21.3024 43.3272 21.2632 43.4224 21.2632C43.6128 21.2688 43.7864 21.2632 43.96 21.2576C43.96 21.2632 43.96 21.2632 43.96 21.2576Z" fill="#E1E1E1"/>
<path d="M25.0824 21.6384C25.1216 21.6384 25.1552 21.6384 25.1944 21.6384C25.2896 21.6328 25.3344 21.6776 25.34 21.7728C25.3736 22.4728 25.4016 23.1784 25.4408 23.8784C25.4576 24.248 25.4968 24.6176 25.5192 24.9816C25.5304 25.1552 25.5136 25.1664 25.3344 25.172C25.1104 25.1832 24.8864 25.2 24.668 25.2112C24.5112 25.2224 24.4776 25.2 24.4608 25.0488C24.416 24.6288 24.3768 24.2032 24.332 23.7832C24.304 23.4752 24.2704 23.1728 24.2424 22.8648C24.2144 22.6016 24.1864 22.344 24.1528 22.0808C24.1472 22.0136 24.1136 21.952 24.1248 21.8904C24.1304 21.8456 24.1808 21.7728 24.22 21.7672C24.5112 21.7112 24.8024 21.6664 25.0936 21.6216C25.0824 21.6272 25.0824 21.6328 25.0824 21.6384Z" fill="#E1E1E1"/>
<path d="M43.2208 24.696C43.2264 24.9032 43.2152 24.9088 43.0024 24.9312C42.7784 24.9536 42.5544 24.9928 42.3304 25.0264C42.2408 25.0376 42.2128 25.0096 42.196 24.92C42.1232 24.5448 42.0336 24.1696 41.9552 23.7944C41.9104 23.5816 41.8768 23.3632 41.832 23.1504C41.7816 22.9152 41.72 22.6856 41.6752 22.4504C41.6248 22.2096 41.5856 21.9688 41.5464 21.728C41.5408 21.7 41.5856 21.6496 41.6136 21.6384C41.9216 21.5544 42.224 21.4816 42.532 21.4032C42.6776 21.3696 42.728 21.4144 42.7504 21.5656C42.8008 21.9072 42.8624 22.2488 42.9184 22.5848C42.952 22.8144 42.98 23.0384 43.0136 23.268C43.0696 23.66 43.1312 24.0464 43.1872 24.4384C43.1984 24.528 43.2096 24.612 43.2208 24.696Z" fill="#E1E1E1"/>
<path d="M16.5144 25.0376C16.4864 25.0096 16.4304 24.9704 16.4136 24.92C16.3632 24.724 16.324 24.528 16.2848 24.332C16.2232 24.0408 16.1672 23.7496 16.1112 23.4584C16.072 23.2568 16.0328 23.0496 15.9936 22.848C15.9488 22.6352 15.8984 22.4224 15.8536 22.2096C15.82 22.0584 15.7864 21.9016 15.764 21.7504C15.7584 21.7168 15.8032 21.6496 15.8368 21.6384C16.1336 21.5544 16.4248 21.4816 16.7216 21.4088C16.912 21.364 16.968 21.4032 16.996 21.6328C17.0352 21.9072 17.0576 22.1816 17.0968 22.456C17.1416 22.7584 17.2032 23.0608 17.248 23.3632C17.2928 23.6768 17.332 23.9848 17.3768 24.2984C17.3936 24.4272 17.4272 24.5504 17.4496 24.6736C17.4776 24.8192 17.4496 24.8864 17.3152 24.9088C17.0632 24.9592 16.8056 24.9928 16.5144 25.0376Z" fill="#E1E1E1"/>
<path d="M51.268 24.5784C51.268 24.7688 51.268 24.9088 51.268 25.0488C51.268 25.1272 51.24 25.172 51.156 25.1776C50.904 25.1888 50.652 25.2056 50.4 25.2224C50.2992 25.228 50.2488 25.2 50.2432 25.0936C50.2208 24.8416 50.1928 24.5896 50.1648 24.3432C50.1144 23.9176 50.0584 23.4976 50.0024 23.072C49.9968 23.0384 50.0024 22.9992 49.9968 22.96C49.9688 22.7024 49.9408 22.4448 49.9128 22.1872C49.9016 22.0864 49.896 21.98 49.9072 21.8792C49.9128 21.84 49.9576 21.7784 49.9912 21.7728C50.316 21.7224 50.6408 21.6776 50.9656 21.6328C51.0608 21.6216 51.0944 21.6664 51.1 21.756C51.1336 22.3048 51.1672 22.8536 51.2008 23.408C51.2232 23.8168 51.2456 24.22 51.268 24.5784Z" fill="#E1E1E1"/>
</svg>
