<svg width="30" height="30" viewBox="0 0 30 30" fill="none" xmlns="http://www.w3.org/2000/svg">
<path d="M15 8.1328C11.1998 8.1328 8.13281 11.1998 8.13281 15C8.13281 18.8002 11.1998 21.8672 15 21.8672C18.8002 21.8672 21.8672 18.8002 21.8672 15C21.8672 11.1998 18.8002 8.1328 15 8.1328ZM15 19.4632C12.5424 19.4632 10.5368 17.4576 10.5368 15C10.5368 12.5424 12.5424 10.5368 15 10.5368C17.4576 10.5368 19.4632 12.5424 19.4632 15C19.4632 17.4576 17.4576 19.4632 15 19.4632ZM22.1484 6.2511C21.2612 6.2511 20.5446 6.96762 20.5446 7.8549C20.5446 8.74218 21.2612 9.45869 22.1484 9.45869C23.0357 9.45869 23.7522 8.74553 23.7522 7.8549C23.7525 7.64421 23.7112 7.43554 23.6307 7.24084C23.5502 7.04614 23.4321 6.86923 23.2831 6.72026C23.1341 6.57128 22.9572 6.45315 22.7625 6.37265C22.5678 6.29214 22.3591 6.25084 22.1484 6.2511ZM28.3862 15C28.3862 13.1518 28.4029 11.3203 28.2991 9.47544C28.1953 7.33258 27.7065 5.43079 26.1395 3.86383C24.5692 2.29352 22.6708 1.80802 20.5279 1.70423C18.6797 1.60044 16.8482 1.61718 15.0033 1.61718C13.1551 1.61718 11.3237 1.60044 9.47879 1.70423C7.33594 1.80802 5.43415 2.29686 3.86719 3.86383C2.29687 5.43414 1.81138 7.33258 1.70759 9.47544C1.60379 11.3237 1.62053 13.1551 1.62053 15C1.62053 16.8449 1.60379 18.6797 1.70759 20.5245C1.81138 22.6674 2.30022 24.5692 3.86719 26.1362C5.4375 27.7065 7.33594 28.192 9.47879 28.2957C11.327 28.3995 13.1585 28.3828 15.0033 28.3828C16.8516 28.3828 18.683 28.3995 20.5279 28.2957C22.6708 28.192 24.5725 27.7031 26.1395 26.1362C27.7098 24.5658 28.1953 22.6674 28.2991 20.5245C28.4063 18.6797 28.3862 16.8482 28.3862 15ZM25.4397 22.8951C25.1953 23.5045 24.9007 23.9598 24.4286 24.4286C23.9565 24.9007 23.5045 25.1953 22.8951 25.4397C21.1339 26.1395 16.952 25.9821 15 25.9821C13.048 25.9821 8.86272 26.1395 7.10156 25.4431C6.49219 25.1987 6.03683 24.904 5.56808 24.4319C5.09598 23.9598 4.80134 23.5078 4.55692 22.8984C3.86049 21.1339 4.01785 16.952 4.01785 15C4.01785 13.048 3.86049 8.86271 4.55692 7.10155C4.80134 6.49218 5.09598 6.03682 5.56808 5.56807C6.04018 5.09932 6.49219 4.80133 7.10156 4.55691C8.86272 3.86048 13.048 4.01785 15 4.01785C16.952 4.01785 21.1373 3.86048 22.8984 4.55691C23.5078 4.80133 23.9632 5.09597 24.4319 5.56807C24.904 6.04017 25.1987 6.49218 25.4431 7.10155C26.1395 8.86271 25.9821 13.048 25.9821 15C25.9821 16.952 26.1395 21.1339 25.4397 22.8951Z" fill="#E1E1E1"/>
</svg>
