<svg width="30" height="30" viewBox="0 0 30 30" fill="none" xmlns="http://www.w3.org/2000/svg">
<path d="M28.9286 6.37164C27.904 6.81361 26.7891 7.13169 25.6406 7.25557C26.833 6.54721 27.7259 5.42812 28.1518 4.10825C27.0329 4.77384 25.8072 5.24056 24.529 5.48772C23.9948 4.9166 23.3487 4.46162 22.6309 4.15113C21.9132 3.84065 21.1392 3.6813 20.3571 3.68303C17.1931 3.68303 14.6484 6.24776 14.6484 9.39508C14.6484 9.83705 14.702 10.279 14.7891 10.7042C10.0513 10.4565 5.8259 8.19307 3.01675 4.72767C2.50489 5.60194 2.23666 6.5974 2.23996 7.61048C2.23996 9.59263 3.24777 11.3404 4.7846 12.3683C3.87893 12.3326 2.99446 12.0837 2.20313 11.6417V11.712C2.20313 14.4877 4.16518 16.7879 6.78014 17.317C6.28915 17.4445 5.78407 17.5097 5.27679 17.5112C4.90514 17.5112 4.55358 17.4743 4.19866 17.4241C4.92188 19.6875 7.02791 21.3315 9.53572 21.385C7.57366 22.9219 5.11608 23.8259 2.44755 23.8259C1.96875 23.8259 1.52679 23.8091 1.06808 23.7556C3.59933 25.3795 6.60268 26.317 9.83706 26.317C20.3371 26.317 26.0826 17.6183 26.0826 10.0681C26.0826 9.82031 26.0826 9.57254 26.0659 9.32477C27.1775 8.51115 28.1518 7.50334 28.9286 6.37164Z" fill="#E1E1E1"/>
</svg>
